<svg width="22" height="19" viewBox="0 0 22 19" fill="none" xmlns="http://www.w3.org/2000/svg">
<path d="M21.5222 5.98342C21.6883 5.83746 21.9354 5.974 21.9354 6.20471V15.8332C21.9354 17.0809 21.0197 18.0931 19.891 18.0931H2.17326C1.04461 18.0931 0.128906 17.0809 0.128906 15.8332V6.20942C0.128906 5.974 0.371673 5.84217 0.542036 5.98813C1.49607 6.80737 2.76101 7.8479 7.10527 11.3367C8.00394 12.0618 9.52017 13.5873 11.0321 13.5779C12.5526 13.592 14.0987 12.0336 14.9633 11.3367C19.3075 7.8479 20.5682 6.80266 21.5222 5.98342ZM11.0321 12.0665C12.0202 12.0854 13.4428 10.6917 14.1583 10.1173C19.8101 5.58321 20.2403 5.18772 21.5435 4.05773C21.7906 3.84585 21.9354 3.51627 21.9354 3.16786V2.27329C21.9354 1.02559 21.0197 0.0133057 19.891 0.0133057H2.17326C1.04461 0.0133057 0.128906 1.02559 0.128906 2.27329V3.16786C0.128906 3.51627 0.273715 3.84115 0.520741 4.05773C1.82402 5.18301 2.25418 5.58321 7.90598 10.1173C8.6215 10.6917 10.044 12.0854 11.0321 12.0665Z" fill="#5D5D5D"/>
</svg>
