<svg width="22" height="24" viewBox="0 0 22 24" fill="none" xmlns="http://www.w3.org/2000/svg">
<path d="M7.29373 18.9255C7.29373 19.0227 7.19261 19.1005 7.06512 19.1005C6.92003 19.1151 6.81892 19.0373 6.81892 18.9255C6.81892 18.8283 6.92003 18.7505 7.04753 18.7505C7.17943 18.736 7.29373 18.8137 7.29373 18.9255ZM5.92643 18.7068C5.89566 18.804 5.98359 18.9158 6.11548 18.9449C6.22979 18.9936 6.36168 18.9449 6.38806 18.8477C6.41444 18.7505 6.33091 18.6388 6.19901 18.595C6.08471 18.561 5.95721 18.6096 5.92643 18.7068ZM7.86967 18.6242C7.74217 18.6582 7.65424 18.7505 7.66743 18.8623C7.68062 18.9595 7.79493 19.0227 7.92682 18.9887C8.05432 18.9547 8.14225 18.8623 8.12906 18.7651C8.11587 18.6728 7.99717 18.6096 7.86967 18.6242ZM10.7625 0C4.66465 0 0 5.11776 0 11.8588C0 17.2487 3.06873 21.8611 7.45201 23.4844C8.01475 23.5961 8.21259 23.2122 8.21259 22.8963C8.21259 22.5949 8.19941 20.9328 8.19941 19.9121C8.19941 19.9121 5.12188 20.6411 4.4756 18.4638C4.4756 18.4638 3.9744 17.0495 3.25338 16.685C3.25338 16.685 2.24659 15.9219 3.32373 15.9365C3.32373 15.9365 4.41845 16.0337 5.02076 17.1904C5.98359 19.0665 7.59709 18.527 8.22578 18.2062C8.3269 17.4286 8.61267 16.8891 8.92922 16.5683C6.4716 16.267 3.99199 15.8733 3.99199 11.1978C3.99199 9.86129 4.32612 9.19058 5.02955 8.33519C4.91525 8.01928 4.54155 6.71676 5.14386 5.03514C6.06272 4.71923 8.17742 6.34738 8.17742 6.34738C9.05672 6.07521 10.002 5.93427 10.9384 5.93427C11.8748 5.93427 12.8201 6.07521 13.6994 6.34738C13.6994 6.34738 15.8141 4.71437 16.7329 5.03514C17.3353 6.72162 16.9616 8.01928 16.8473 8.33519C17.5507 9.19544 17.9815 9.86615 17.9815 11.1978C17.9815 15.8879 15.392 16.2621 12.9344 16.5683C13.3389 16.9523 13.6818 17.6813 13.6818 18.8234C13.6818 20.4613 13.6686 22.488 13.6686 22.8865C13.6686 23.2025 13.8708 23.5864 14.4292 23.4746C18.8257 21.8611 21.8065 17.2487 21.8065 11.8588C21.8065 5.11776 16.8604 0 10.7625 0ZM4.27336 16.7627C4.21621 16.8113 4.2294 16.9231 4.30414 17.0155C4.37448 17.0932 4.4756 17.1272 4.53275 17.0641C4.58991 17.0155 4.57672 16.9037 4.50198 16.8113C4.43164 16.7336 4.33052 16.6995 4.27336 16.7627ZM3.79854 16.3691C3.76777 16.4322 3.81173 16.51 3.89966 16.5586C3.97001 16.6072 4.05794 16.5926 4.08871 16.5246C4.11949 16.4614 4.07552 16.3836 3.98759 16.335C3.89966 16.3059 3.82932 16.3205 3.79854 16.3691ZM5.223 18.0993C5.15266 18.1625 5.17903 18.3083 5.28015 18.4006C5.38127 18.5124 5.50877 18.527 5.56592 18.4492C5.62308 18.386 5.5967 18.2402 5.50877 18.1479C5.41205 18.0361 5.28015 18.0215 5.223 18.0993ZM4.7218 17.3848C4.65146 17.4334 4.65146 17.5598 4.7218 17.6716C4.79215 17.7834 4.91085 17.832 4.968 17.7834C5.03835 17.7202 5.03835 17.5938 4.968 17.482C4.90645 17.3703 4.79215 17.3217 4.7218 17.3848Z" fill="#5D5D5D"/>
</svg>
