<svg width="22" height="25" viewBox="0 0 22 25" fill="none" xmlns="http://www.w3.org/2000/svg">
<path d="M20.3127 0H1.61658C0.759897 0 0.0638428 0.780231 0.0638428 1.73803V22.3684C0.0638428 23.3262 0.759897 24.1064 1.61658 24.1064H20.3127C21.1694 24.1064 21.8703 23.3262 21.8703 22.3684V1.73803C21.8703 0.780231 21.1694 0 20.3127 0ZM6.65446 20.6627H3.42243V9.1583H6.65932V20.6627H6.65446ZM5.03844 7.58707C4.00166 7.58707 3.16445 6.65618 3.16445 5.51543C3.16445 4.37467 4.00166 3.44378 5.03844 3.44378C6.07035 3.44378 6.91243 4.37467 6.91243 5.51543C6.91243 6.66156 6.07522 7.58707 5.03844 7.58707ZM18.7697 20.6627H15.5377V15.0665C15.5377 13.7321 15.5133 12.0156 13.8584 12.0156C12.1742 12.0156 11.9162 13.4684 11.9162 14.9697V20.6627H8.68421V9.1583H11.7848V10.7295H11.8286C12.2618 9.82553 13.3181 8.87311 14.8903 8.87311C18.1613 8.87311 18.7697 11.2568 18.7697 14.3562V20.6627Z" fill="#5D5D5D"/>
</svg>
