<svg width="25" height="22" viewBox="0 0 25 22" fill="none" xmlns="http://www.w3.org/2000/svg">
<path d="M12.5 0.210449C5.5957 0.210449 0 4.68669 0 10.2111C0 12.5958 1.04492 14.7787 2.7832 16.4951C2.17285 18.9183 0.131836 21.0771 0.107422 21.1012C0 21.2118 -0.0292969 21.3752 0.0341797 21.5195C0.0976562 21.6637 0.234375 21.7502 0.390625 21.7502C3.62793 21.7502 6.05469 20.2213 7.25586 19.2789C8.85254 19.8703 10.625 20.2117 12.5 20.2117C19.4043 20.2117 25 15.7354 25 10.2111C25 4.68669 19.4043 0.210449 12.5 0.210449ZM6.25 11.7496C5.38574 11.7496 4.6875 11.0621 4.6875 10.2111C4.6875 9.36005 5.38574 8.67251 6.25 8.67251C7.11426 8.67251 7.8125 9.36005 7.8125 10.2111C7.8125 11.0621 7.11426 11.7496 6.25 11.7496ZM12.5 11.7496C11.6357 11.7496 10.9375 11.0621 10.9375 10.2111C10.9375 9.36005 11.6357 8.67251 12.5 8.67251C13.3643 8.67251 14.0625 9.36005 14.0625 10.2111C14.0625 11.0621 13.3643 11.7496 12.5 11.7496ZM18.75 11.7496C17.8857 11.7496 17.1875 11.0621 17.1875 10.2111C17.1875 9.36005 17.8857 8.67251 18.75 8.67251C19.6143 8.67251 20.3125 9.36005 20.3125 10.2111C20.3125 11.0621 19.6143 11.7496 18.75 11.7496Z" fill="#5D5D5D"/>
</svg>
