<svg width="22" height="34" viewBox="0 0 22 34" fill="none" xmlns="http://www.w3.org/2000/svg">
<path d="M0.78125 14.9062H21.0938C21.301 14.9062 21.4997 14.7831 21.6462 14.5641C21.7927 14.3452 21.875 14.0481 21.875 13.7384V11.403C21.875 11.0933 21.7927 10.7963 21.6462 10.5773C21.4997 10.3583 21.301 10.2353 21.0938 10.2353H0.78125C0.57405 10.2353 0.375336 10.3583 0.228823 10.5773C0.0823101 10.7963 0 11.0933 0 11.403L0 13.7384C0 14.0481 0.0823101 14.3452 0.228823 14.5641C0.375336 14.7831 0.57405 14.9062 0.78125 14.9062ZM21.0938 28.9188H0.78125C0.57405 28.9188 0.375336 29.0418 0.228823 29.2608C0.0823101 29.4798 0 29.7768 0 30.0865L0 32.4219C0 32.7316 0.0823101 33.0286 0.228823 33.2476C0.375336 33.4666 0.57405 33.5896 0.78125 33.5896H21.0938C21.301 33.5896 21.4997 33.4666 21.6462 33.2476C21.7927 33.0286 21.875 32.7316 21.875 32.4219V30.0865C21.875 29.7768 21.7927 29.4798 21.6462 29.2608C21.4997 29.0418 21.301 28.9188 21.0938 28.9188ZM21.2485 0.893555H8.43896C8.35668 0.893459 8.27519 0.917613 8.19915 0.964636C8.12312 1.01166 8.05403 1.08063 7.99584 1.1676C7.93766 1.25456 7.89152 1.35783 7.86006 1.47147C7.8286 1.58512 7.81244 1.70693 7.8125 1.82992V4.62806C7.81244 4.75105 7.8286 4.87286 7.86006 4.9865C7.89152 5.10015 7.93766 5.20341 7.99584 5.29038C8.05403 5.37735 8.12312 5.44632 8.19915 5.49334C8.27519 5.54036 8.35668 5.56452 8.43896 5.56442H21.2485C21.3308 5.56452 21.4123 5.54036 21.4883 5.49334C21.5644 5.44632 21.6335 5.37735 21.6917 5.29038C21.7498 5.20341 21.796 5.10015 21.8274 4.9865C21.8589 4.87286 21.8751 4.75105 21.875 4.62806V1.82992C21.8751 1.70693 21.8589 1.58512 21.8274 1.47147C21.796 1.35783 21.7498 1.25456 21.6917 1.1676C21.6335 1.08063 21.5644 1.01166 21.4883 0.964636C21.4123 0.917613 21.3308 0.893459 21.2485 0.893555ZM21.2485 19.577H8.43896C8.35668 19.5769 8.27519 19.6011 8.19915 19.6481C8.12312 19.6951 8.05403 19.7641 7.99584 19.8511C7.93766 19.938 7.89152 20.0413 7.86006 20.1549C7.8286 20.2686 7.81244 20.3904 7.8125 20.5134V23.3115C7.81244 23.4345 7.8286 23.5563 7.86006 23.67C7.89152 23.7836 7.93766 23.8869 7.99584 23.9739C8.05403 24.0608 8.12312 24.1298 8.19915 24.1768C8.27519 24.2238 8.35668 24.248 8.43896 24.2479H21.2485C21.3308 24.248 21.4123 24.2238 21.4883 24.1768C21.5644 24.1298 21.6335 24.0608 21.6917 23.9739C21.7498 23.8869 21.796 23.7836 21.8274 23.67C21.8589 23.5563 21.8751 23.4345 21.875 23.3115V20.5134C21.8751 20.3904 21.8589 20.2686 21.8274 20.1549C21.796 20.0413 21.7498 19.938 21.6917 19.8511C21.6335 19.7641 21.5644 19.6951 21.4883 19.6481C21.4123 19.6011 21.3308 19.5769 21.2485 19.577Z" fill="#2F2F2F"/>
</svg>
