<svg width="25" height="25" viewBox="0 0 25 25" fill="none" xmlns="http://www.w3.org/2000/svg">
<path d="M12.5 13.8695C16.3818 13.8695 19.5312 10.7683 19.5312 6.94598C19.5312 3.12362 16.3818 0.0224609 12.5 0.0224609C8.61816 0.0224609 5.46875 3.12362 5.46875 6.94598C5.46875 10.7683 8.61816 13.8695 12.5 13.8695ZM18.75 15.4081H16.0596C14.9756 15.8985 13.7695 16.1773 12.5 16.1773C11.2305 16.1773 10.0293 15.8985 8.94043 15.4081H6.25C2.79785 15.4081 0 18.163 0 21.5623V22.3316C0 23.6057 1.0498 24.6394 2.34375 24.6394H22.6562C23.9502 24.6394 25 23.6057 25 22.3316V21.5623C25 18.163 22.2021 15.4081 18.75 15.4081Z" fill="#2F2F2F"/>
</svg>
