<svg width="35" height="35" viewBox="0 0 35 35" fill="none" xmlns="http://www.w3.org/2000/svg">
<path d="M29.7578 5.00803C26.4844 1.77704 22.125 0 17.4922 0C7.92969 0 0.148438 7.66206 0.148438 17.0781C0.148438 20.086 0.945312 23.0246 2.46094 25.6171L0 34.4639L9.19531 32.0868C11.7266 33.4484 14.5781 34.1638 17.4844 34.1638H17.4922C27.0469 34.1638 35 26.5018 35 17.0858C35 12.5239 33.0312 8.23902 29.7578 5.00803ZM17.4922 31.2867C14.8984 31.2867 12.3594 30.6021 10.1484 29.3097L9.625 29.002L4.17188 30.4097L5.625 25.1709L5.28125 24.6324C3.83594 22.3707 3.07812 19.7629 3.07812 17.0781C3.07812 9.25447 9.54688 2.88481 17.5 2.88481C21.3516 2.88481 24.9688 4.36183 27.6875 7.04663C30.4062 9.73143 32.0781 13.2932 32.0703 17.0858C32.0703 24.9171 25.4375 31.2867 17.4922 31.2867ZM25.3984 20.6552C24.9688 20.4398 22.8359 19.409 22.4375 19.2705C22.0391 19.1244 21.75 19.0551 21.4609 19.4859C21.1719 19.9167 20.3438 20.8706 20.0859 21.163C19.8359 21.4476 19.5781 21.4861 19.1484 21.2707C16.6016 20.0167 14.9297 19.0321 13.25 16.1934C12.8047 15.4395 13.6953 15.4934 14.5234 13.8625C14.6641 13.5778 14.5937 13.3317 14.4844 13.1163C14.375 12.9009 13.5078 10.8007 13.1484 9.94683C12.7969 9.116 12.4375 9.23139 12.1719 9.21601C11.9219 9.20062 11.6328 9.20062 11.3438 9.20062C11.0547 9.20062 10.5859 9.30832 10.1875 9.73143C9.78906 10.1622 8.67188 11.1931 8.67188 13.2932C8.67188 15.3933 10.2266 17.4243 10.4375 17.7089C10.6562 17.9935 13.4922 22.3015 17.8438 24.1555C20.5938 25.3248 21.6719 25.4248 23.0469 25.2248C23.8828 25.1017 25.6094 24.1939 25.9688 23.1939C26.3281 22.1938 26.3281 21.3399 26.2188 21.163C26.1172 20.9706 25.8281 20.8629 25.3984 20.6552Z" fill="#EB084C"/>
</svg>
