<svg width="22" height="25" viewBox="0 0 22 25" fill="none" xmlns="http://www.w3.org/2000/svg">
<path d="M11.0967 4.88586C7.55803 4.88586 4.68133 8.06597 4.67646 11.9779C4.67646 13.3177 5.01719 14.6253 5.6597 15.7499L5.8106 16.0189L5.16322 18.6341L7.59211 17.9292L7.82575 18.0852C8.80899 18.7309 9.93825 19.0753 11.0919 19.0753H11.0967C14.6305 19.0753 17.5851 15.8952 17.5851 11.9833C17.5851 10.0892 16.8453 8.30811 15.6332 6.96827C14.4164 5.62304 12.8101 4.88586 11.0967 4.88586ZM14.869 15.0235C14.7084 15.5239 13.9393 15.9759 13.5694 16.0351C12.9561 16.1373 12.4791 16.0835 11.2573 15.5024C9.32494 14.5769 8.05939 12.4245 7.96204 12.2846C7.86469 12.1447 7.1735 11.1277 7.1735 10.0784C7.1735 9.02916 7.66999 8.51259 7.85009 8.29735C8.02532 8.08212 8.23462 8.02831 8.36604 8.02831C8.4926 8.02831 8.62402 8.02831 8.73597 8.03369C8.85279 8.03907 9.01342 7.98526 9.16918 8.39959C9.32981 8.82468 9.71434 9.87396 9.76302 9.98157C9.81169 10.0892 9.84577 10.213 9.77762 10.3529C9.40769 11.1708 9.01342 11.1385 9.21299 11.5151C9.95772 12.9303 10.7025 13.42 11.8366 14.0495C12.0313 14.1572 12.1432 14.141 12.2552 13.9957C12.3671 13.8558 12.7371 13.3715 12.8636 13.1617C12.9902 12.9465 13.1216 12.9841 13.2968 13.0541C13.4721 13.124 14.4212 13.6406 14.6159 13.7482C14.8106 13.8558 14.9372 13.9096 14.9859 13.9957C15.0297 14.098 15.0297 14.5284 14.869 15.0235V15.0235ZM19.6635 0H2.52989C1.24 0 0.193481 1.15689 0.193481 2.58283V21.5236C0.193481 22.9496 1.24 24.1064 2.52989 24.1064H19.6635C20.9534 24.1064 22 22.9496 22 21.5236V2.58283C22 1.15689 20.9534 0 19.6635 0ZM11.0919 20.512C9.79709 20.512 8.52667 20.1515 7.40227 19.4735L3.30869 20.6627L4.40388 16.2396C3.7273 14.9481 3.37197 13.4792 3.37197 11.9725C3.37684 7.2696 6.83764 3.44378 11.0919 3.44378C13.1557 3.44378 15.093 4.33163 16.5532 5.9459C18.0086 7.56017 18.8847 9.70177 18.8847 11.9833C18.8847 16.6862 15.3461 20.512 11.0919 20.512Z" fill="#5D5D5D"/>
</svg>
